<svg width="98" height="103" viewBox="0 0 98 103" fill="none" xmlns="http://www.w3.org/2000/svg">
<path d="M61.5161 55.0606C56.2799 55.362 51.8348 59.8835 51.6088 65.1396L49.9512 102.291L54.7731 99.9547L62.4202 74.9172C63.8517 70.2451 67.6376 66.4584 72.29 65.0831L97.0019 57.6981L98.0002 52.9694L61.5161 55.0606Z" fill="white"/>
<path d="M36.597 55.0606L0.112976 52.9694L1.11125 57.6981L25.8232 65.0831C30.4755 66.4772 34.2614 70.2451 35.6929 74.9172L43.3401 99.9547L48.1619 102.291L46.5044 65.1396C46.2784 59.8835 41.8144 55.362 36.597 55.0606Z" fill="white"/>
<path d="M61.4031 48.0147L97.8871 50.2942L96.9077 45.5655L72.2334 38.0487C67.581 36.6357 63.8328 32.849 62.4202 28.158L54.886 3.08285L50.083 0.727936L51.5522 37.8791C51.7594 43.1353 56.1857 47.6755 61.4219 48.0147H61.4031Z" fill="white"/>
<path d="M35.6929 28.0261C34.2426 32.6983 30.4378 36.4473 25.7855 37.8226L1.01703 45.0946L-7.62939e-05 49.8232L36.5028 47.9016C41.739 47.619 46.203 43.1164 46.4667 37.8603L48.3125 0.709106L43.4719 3.00751L35.6929 28.0073V28.0261Z" fill="white"/>
</svg>
